<?xml version="1.0" encoding="utf-8"?>
<!-- Generator: Adobe Illustrator 16.0.0, SVG Export Plug-In . SVG Version: 6.00 Build 0)  -->
<!DOCTYPE svg PUBLIC "-//W3C//DTD SVG 1.1//EN" "http://www.w3.org/Graphics/SVG/1.1/DTD/svg11.dtd">
<svg version="1.1" id="Layer_1" xmlns="http://www.w3.org/2000/svg" xmlns:xlink="http://www.w3.org/1999/xlink" x="0px" y="0px"
	 width="999px" height="402.738px" viewBox="0 0 999 402.738" enable-background="new 0 0 999 402.738" xml:space="preserve">
<g id="Layer_2">
	<g>
		<path fill="#CECECE" stroke="#E0E0E0" stroke-width="25" stroke-miterlimit="10" d="M386.271,123.985
			c2.262-14.385,11.51-18.906,22.398-18.906c12.536,0,21.373,8.631,21.373,20.55c0,6.371-2.261,15.619-5.138,27.332l-20.757,84.257
			c-3.288,13.357-10.895,21.168-24.66,21.168h-7.192c-13.77,0-20.346-7.396-23.017-21.784l-12.947-68.639h-0.411l-12.946,68.639
			c-2.672,14.388-9.248,21.784-23.017,21.784h-7.193c-13.769,0-21.372-7.811-24.66-21.168l-20.756-84.257
			c-2.877-11.713-5.138-20.961-5.138-27.332c0-11.919,8.837-20.55,21.372-20.55c10.892,0,20.14,4.521,22.4,18.906l12.946,80.558
			h0.411l12.947-76.653c2.672-16.235,7.604-22.811,23.839-22.811c16.234,0,21.167,6.576,23.838,22.811l12.947,76.653h0.411
			L386.271,123.985z M451.822,135.905c0-19.729,8.631-28.154,26.921-28.154h42.746c36.168,0,64.525,11.097,64.525,51.171
			c0,39.868-28.357,50.965-64.525,50.965h-23.634v23.84c0,15.823-8.223,24.659-23.019,24.659c-14.797,0-23.017-8.836-23.017-24.659
			L451.822,135.905L451.822,135.905z M523.953,174.128c7.811,0,16.029-4.932,16.029-15.001c0-9.864-6.781-15.619-18.289-15.619
			h-23.84v30.62H523.953z M680.34,104.257c39.252,0,76.447,25.688,76.447,77.475c0,53.638-36.785,77.477-76.447,77.477
			s-76.449-23.838-76.449-77.477C603.891,129.945,641.088,104.257,680.34,104.257z M680.34,141.248
			c-19.729,0-29.182,16.44-29.182,40.484c0,24.045,9.453,40.485,29.182,40.485c19.729,0,29.184-16.439,29.184-40.485
			C709.521,157.688,700.068,141.248,680.34,141.248z"/>
	</g>
</g>
<g id="Layer_1_1_">
	
		<image overflow="visible" opacity="0.25" enable-background="new    " width="531" height="171" xlink:href="EED64F89.png"  transform="matrix(1 0 0 1 234 98.8965)">
	</image>
	<g>
		<g>
			
				<linearGradient id="SVGID_1_" gradientUnits="userSpaceOnUse" x1="109.4985" y1="648.4707" x2="109.4985" y2="493.5186" gradientTransform="matrix(1 0 0 1 387 -389.2617)">
				<stop  offset="0" style="stop-color:#29ABE2"/>
				<stop  offset="0.3978" style="stop-color:#29A7E2"/>
				<stop  offset="0.7504" style="stop-color:#299DE2"/>
				<stop  offset="1" style="stop-color:#2990E2"/>
			</linearGradient>
			<path fill="url(#SVGID_1_)" stroke="#F4F4F4" stroke-width="3" stroke-miterlimit="10" d="M383.271,123.985
				c2.261-14.385,11.509-18.906,22.397-18.906c12.536,0,21.373,8.631,21.373,20.55c0,6.371-2.261,15.619-5.138,27.332
				l-20.758,84.257c-3.287,13.357-10.894,21.168-24.659,21.168h-7.192c-13.77,0-20.346-7.396-23.017-21.784l-12.947-68.639h-0.411
				l-12.946,68.639c-2.672,14.388-9.248,21.784-23.017,21.784h-7.193c-13.769,0-21.372-7.811-24.66-21.168l-20.756-84.257
				c-2.877-11.713-5.138-20.961-5.138-27.332c0-11.919,8.837-20.55,21.372-20.55c10.892,0,20.14,4.521,22.4,18.906l12.946,80.558
				h0.411l12.947-76.653c2.672-16.235,7.604-22.811,23.839-22.811c16.234,0,21.167,6.576,23.838,22.811l12.947,76.653h0.411
				L383.271,123.985z M448.821,135.905c0-19.729,8.631-28.154,26.921-28.154h42.745c36.168,0,64.525,11.097,64.525,51.171
				c0,39.868-28.357,50.965-64.525,50.965h-23.634v23.84c0,15.823-8.223,24.659-23.019,24.659c-14.797,0-23.017-8.836-23.017-24.659
				L448.821,135.905L448.821,135.905z M520.953,174.128c7.81,0,16.029-4.932,16.029-15.001c0-9.864-6.782-15.619-18.29-15.619
				h-23.839v30.62H520.953z M677.339,104.257c39.252,0,76.448,25.688,76.448,77.475c0,53.638-36.786,77.477-76.448,77.477
				s-76.448-23.838-76.448-77.477C600.891,129.945,638.087,104.257,677.339,104.257z M677.339,141.248
				c-19.729,0-29.182,16.44-29.182,40.484c0,24.045,9.453,40.485,29.182,40.485c19.729,0,29.183-16.439,29.183-40.485
				C706.521,157.688,697.067,141.248,677.339,141.248z"/>
		</g>
	</g>
</g>
<linearGradient id="SVGID_2_" gradientUnits="userSpaceOnUse" x1="306.0005" y1="170.2759" x2="306.0005" y2="205.5649" gradientTransform="matrix(1 0 0 -1 193.5 506.2383)">
	<stop  offset="0" style="stop-color:#29ABE2"/>
	<stop  offset="0.3978" style="stop-color:#29A7E2"/>
	<stop  offset="0.7504" style="stop-color:#299DE2"/>
	<stop  offset="1" style="stop-color:#2990E2"/>
</linearGradient>
<path fill="url(#SVGID_2_)" d="M155.642,328.989l-3.372-22.648h2.966l2.754,18.817h0.062l3.257-14.033h3.354l3.213,13.821h0.044
	l2.904-18.605h2.648l-3.725,22.648h-3.778l-3.125-13.293h-0.035l-3.142,13.293H155.642z M193.154,328.23
	c-2.413,0.8-4.625,1.199-6.638,1.199c-3.295,0-5.828-0.848-7.599-2.541c-1.771-1.695-2.657-4.119-2.657-7.273
	c0-2.977,0.85-5.426,2.551-7.344c1.7-1.918,3.863-2.877,6.487-2.877c2.648,0,4.599,0.795,5.852,2.383
	c1.253,1.589,1.88,4.061,1.88,7.414v1.111h-13.063c0.259,4.344,2.601,6.516,7.026,6.516c1.871,0,3.924-0.447,6.161-1.342V328.23z
	 M180.073,317.691h9.25v-0.494c0-3.46-1.442-5.19-4.325-5.19c-1.389,0-2.516,0.501-3.38,1.501
	C180.752,314.508,180.238,315.902,180.073,317.691z M198.608,329.201v-28.086h3.478v12.305c1.683-2.684,3.771-4.025,6.267-4.025
	c2.177,0,3.893,0.84,5.146,2.517s1.88,3.963,1.88,6.858c0,3.176-0.742,5.748-2.225,7.713c-1.482,1.967-3.424,2.949-5.825,2.949
	c-2.06,0-3.807-0.871-5.243-2.613l-0.865,2.384L198.608,329.201L198.608,329.201z M202.086,324.205
	c1.612,1.742,3.201,2.613,4.766,2.613c1.53,0,2.715-0.674,3.557-2.021c0.841-1.348,1.262-3.232,1.262-5.658
	c0-4.519-1.348-6.777-4.042-6.777c-1.966,0-3.813,1.224-5.543,3.672V324.205z M243.146,328.989v-22.648h7.369
	c2.627,0,4.5,0.235,5.62,0.706c2.286,0.988,3.428,2.896,3.428,5.721c0,2.377-0.922,4.241-2.767,5.596
	c-1.845,1.354-4.387,2.029-7.627,2.029h-2.545v8.598L243.146,328.989L243.146,328.989z M246.624,317.779h2.171
	c4.707,0,7.061-1.647,7.061-4.942c0-1.389-0.444-2.383-1.333-2.983c-0.889-0.6-2.368-0.899-4.439-0.899h-3.46V317.779
	L246.624,317.779z M280.288,328.23c-2.413,0.8-4.625,1.199-6.638,1.199c-3.295,0-5.828-0.848-7.599-2.541
	c-1.771-1.695-2.657-4.119-2.657-7.273c0-2.977,0.85-5.426,2.551-7.344c1.7-1.918,3.863-2.877,6.487-2.877
	c2.648,0,4.599,0.795,5.852,2.383c1.253,1.589,1.88,4.061,1.88,7.414v1.111h-13.063c0.259,4.344,2.601,6.516,7.026,6.516
	c1.871,0,3.924-0.447,6.161-1.342V328.23z M267.207,317.691h9.25v-0.494c0-3.46-1.442-5.19-4.325-5.19
	c-1.389,0-2.516,0.501-3.38,1.501C267.886,314.508,267.372,315.902,267.207,317.691z M288.125,328.989v-19.171h3.478v3.602
	c1.766-2.684,4.137-4.025,7.114-4.025c1.047,0,2.236,0.147,3.566,0.441v5.438h-2.613v-2.666c-0.518-0.116-0.988-0.176-1.412-0.176
	c-1.33,0-2.498,0.31-3.504,0.926c-1.006,0.619-2.057,1.67-3.151,3.151v12.48H288.125z M312.31,328.989v-16.117h-5.225v-2.612h5.225
	v-2.029c0-2.685,0.624-4.613,1.871-5.791c1.247-1.176,3.295-1.766,6.144-1.766c1.883,0,3.666,0.254,5.349,0.76v2.754
	c-1.719-0.601-3.413-0.899-5.084-0.899c-1.776,0-3.021,0.338-3.733,1.015c-0.713,0.678-1.068,1.862-1.068,3.557v2.402h9.162v2.611
	h-9.162v16.117L312.31,328.989L312.31,328.989z M337.146,329.432c-2.813,0-5.021-0.893-6.627-2.676
	c-1.606-1.781-2.41-4.232-2.41-7.354c0-3.105,0.806-5.551,2.418-7.334c1.611-1.782,3.818-2.674,6.619-2.674
	c2.813,0,5.022,0.892,6.63,2.674c1.605,1.783,2.409,4.229,2.409,7.334c0,3.119-0.803,5.57-2.409,7.354
	S339.96,329.432,337.146,329.432z M337.146,326.818c1.672,0,2.979-0.653,3.92-1.961c0.94-1.307,1.412-3.123,1.412-5.455
	c0-2.316-0.471-4.129-1.412-5.437c-0.942-1.307-2.248-1.96-3.92-1.96c-1.671,0-2.978,0.653-3.918,1.96
	c-0.941,1.308-1.412,3.119-1.412,5.437c0,2.332,0.471,4.148,1.412,5.455C334.169,326.165,335.477,326.818,337.146,326.818z
	 M353.476,328.989v-19.171h3.479v3.602c1.766-2.684,4.137-4.025,7.114-4.025c1.047,0,2.235,0.147,3.565,0.441v5.438h-2.612v-2.666
	c-0.519-0.116-0.988-0.176-1.412-0.176c-1.33,0-2.498,0.31-3.504,0.926c-1.007,0.619-2.058,1.67-3.151,3.151v12.48H353.476z
	 M371.464,328.989v-19.171h3.054v3.602c1.494-2.684,2.918-4.025,4.272-4.025c1.729,0,2.842,1.343,3.336,4.025h0.124
	c1.224-2.684,2.659-4.025,4.307-4.025c1.2,0,2.071,0.438,2.613,1.315c0.541,0.877,0.813,2.292,0.813,4.245v14.034h-3.055v-13.894
	c0-1.048-0.077-1.76-0.229-2.136c-0.153-0.377-0.441-0.565-0.865-0.565c-1.105,0-2.301,1.406-3.583,4.22v12.375h-3.054v-13.257
	c0-1.318-0.077-2.198-0.229-2.641c-0.151-0.441-0.459-0.662-0.918-0.662c-0.494,0-1.08,0.403-1.756,1.211
	c-0.677,0.806-1.268,1.809-1.774,3.01v12.339H371.464z M406.347,326.677c-2.106,1.767-4.208,2.647-6.302,2.647
	c-1.753,0-3.198-0.5-4.333-1.5c-1.136-1-1.704-2.266-1.704-3.795c0-1.989,0.882-3.59,2.648-4.803
	c1.765-1.211,4.095-1.817,6.99-1.817h2.153v-1.642c0-1.354-0.3-2.318-0.899-2.896c-0.601-0.576-1.596-0.865-2.983-0.865
	c-2.012,0-4.095,0.565-6.249,1.695v-2.983c2.468-0.883,4.784-1.323,6.946-1.323c2.433,0,4.15,0.481,5.157,1.446
	c1.005,0.966,1.507,2.632,1.507,4.996v8.032c0,1.152,0.124,1.938,0.371,2.355s0.712,0.627,1.395,0.627
	c0.224,0,0.588-0.059,1.095-0.177l0.318,2.083c-1.162,0.377-2.042,0.564-2.641,0.564
	C408.101,329.324,406.945,328.441,406.347,326.677z M405.799,324.417v-4.837h-1.042c-4.766,0-7.148,1.289-7.148,3.865
	c0,0.931,0.306,1.678,0.918,2.242c0.611,0.564,1.424,0.848,2.436,0.848C402.48,326.535,404.093,325.829,405.799,324.417z
	 M416.604,328.989v-19.171h3.478v3.602c1.6-2.684,3.778-4.025,6.532-4.025c3.636,0,5.455,2.16,5.455,6.479v13.116h-3.479v-12.163
	c0-1.494-0.232-2.558-0.697-3.187c-0.465-0.63-1.244-0.944-2.339-0.944c-1.741,0-3.565,1.254-5.472,3.761v12.533L416.604,328.989
	L416.604,328.989z M454.645,328.371c-2.06,0.706-4.112,1.061-6.16,1.061c-3.343,0-5.917-0.871-7.724-2.613
	c-1.807-1.741-2.709-4.213-2.709-7.414c0-3.143,0.893-5.596,2.674-7.36c1.783-1.767,4.264-2.647,7.441-2.647
	c2.024,0,4.066,0.307,6.125,0.918v2.912c-2.271-0.813-4.208-1.219-5.808-1.219c-2.096,0-3.739,0.659-4.935,1.979
	c-1.194,1.317-1.792,3.125-1.792,5.419c0,2.319,0.639,4.134,1.916,5.446c1.276,1.313,3.039,1.969,5.287,1.969
	c1.683,0,3.578-0.396,5.686-1.185v2.735H454.645z M476.34,328.23c-2.413,0.8-4.625,1.199-6.638,1.199
	c-3.295,0-5.828-0.848-7.599-2.541c-1.771-1.695-2.657-4.119-2.657-7.273c0-2.977,0.85-5.426,2.551-7.344
	c1.7-1.918,3.863-2.877,6.487-2.877c2.647,0,4.599,0.795,5.852,2.383c1.253,1.589,1.88,4.061,1.88,7.414v1.111h-13.063
	c0.259,4.344,2.601,6.516,7.025,6.516c1.871,0,3.925-0.447,6.161-1.342V328.23z M463.259,317.691h9.25v-0.494
	c0-3.46-1.441-5.19-4.325-5.19c-1.389,0-2.516,0.501-3.38,1.501C463.938,314.508,463.424,315.902,463.259,317.691z M501.619,317.656
	c0-3.613,0.886-6.493,2.659-8.643c1.771-2.146,4.153-3.221,7.146-3.221s5.374,1.073,7.147,3.221
	c1.771,2.148,2.659,5.028,2.659,8.643c0,3.625-0.888,6.511-2.659,8.658c-1.773,2.147-4.155,3.222-7.147,3.222
	s-5.374-1.073-7.146-3.222C502.505,324.167,501.619,321.281,501.619,317.656z M505.326,317.656c0,2.966,0.525,5.252,1.58,6.857
	c1.053,1.606,2.557,2.409,4.51,2.409s3.46-0.803,4.52-2.409c1.06-1.605,1.59-3.893,1.59-6.857c0-2.954-0.53-5.234-1.59-6.842
	c-1.06-1.605-2.565-2.408-4.52-2.408s-3.457,0.803-4.51,2.408C505.854,312.422,505.326,314.702,505.326,317.656z M525.468,335.962
	v-26.144h3.479v3.602c1.683-2.684,3.771-4.025,6.267-4.025c2.177,0,3.894,0.84,5.146,2.517c1.254,1.677,1.88,3.963,1.88,6.858
	c0,3.176-0.741,5.748-2.225,7.713c-1.482,1.967-3.425,2.949-5.825,2.949c-2.061,0-3.808-0.871-5.242-2.613v9.145L525.468,335.962
	L525.468,335.962z M528.945,324.205c1.611,1.742,3.201,2.613,4.766,2.613c1.53,0,2.716-0.674,3.558-2.021s1.263-3.232,1.263-5.658
	c0-4.519-1.349-6.777-4.042-6.777c-1.966,0-3.813,1.224-5.543,3.672L528.945,324.205L528.945,324.205z M563.544,328.973
	c-1.741,0.305-3.425,0.459-5.049,0.459c-2.836,0-4.767-0.51-5.79-1.527c-1.023-1.019-1.535-2.944-1.535-5.781v-9.25h-4.784v-2.612
	h4.784v-4.131h3.479v4.131h8.509v2.612h-8.509v9.814c0,1.095,0.066,1.849,0.203,2.26c0.136,0.412,0.428,0.771,0.875,1.076
	c0.802,0.529,1.97,0.795,3.503,0.795c1.449,0,2.889-0.164,4.314-0.494V328.973L563.544,328.973z M575.901,328.989v-16.56h-6.974
	v-2.611h10.45v19.171H575.901z M575.461,305.477v-4.36h4.359v4.36H575.461z M589.3,328.989v-19.171h3.054v3.602
	c1.495-2.684,2.92-4.025,4.272-4.025c1.729,0,2.842,1.343,3.336,4.025h0.124c1.224-2.684,2.659-4.025,4.307-4.025
	c1.201,0,2.071,0.438,2.613,1.315c0.541,0.877,0.813,2.292,0.813,4.245v14.034h-3.055v-13.894c0-1.048-0.076-1.76-0.229-2.136
	c-0.153-0.377-0.441-0.565-0.865-0.565c-1.105,0-2.301,1.406-3.583,4.22v12.375h-3.054v-13.257c0-1.318-0.077-2.198-0.229-2.641
	c-0.152-0.441-0.459-0.662-0.918-0.662c-0.495,0-1.08,0.403-1.757,1.211c-0.677,0.806-1.269,1.809-1.774,3.01v12.339H589.3z
	 M619.468,328.989v-16.56h-6.973v-2.611h10.45v19.171H619.468z M619.027,305.477v-4.36h4.358v4.36H619.027z M633.626,328.989v-2.612
	l12.552-13.945h-12.109v-2.613h16.224v2.613l-12.569,13.945h12.888v2.612H633.626z M667.749,326.677
	c-2.106,1.767-4.208,2.647-6.302,2.647c-1.754,0-3.198-0.5-4.334-1.5c-1.137-1-1.704-2.266-1.704-3.795
	c0-1.989,0.883-3.59,2.647-4.803c1.766-1.211,4.097-1.817,6.99-1.817h2.153v-1.642c0-1.354-0.3-2.318-0.899-2.896
	c-0.601-0.576-1.596-0.865-2.982-0.865c-2.014,0-4.097,0.565-6.249,1.695v-2.983c2.468-0.883,4.783-1.323,6.944-1.323
	c2.435,0,4.152,0.481,5.157,1.446c1.005,0.966,1.508,2.632,1.508,4.996v8.032c0,1.152,0.123,1.938,0.37,2.355
	s0.712,0.627,1.396,0.627c0.224,0,0.589-0.059,1.095-0.177l0.317,2.083c-1.161,0.377-2.042,0.564-2.641,0.564
	C669.503,329.324,668.348,328.441,667.749,326.677z M667.201,324.417v-4.837h-1.041c-4.768,0-7.149,1.289-7.149,3.865
	c0,0.931,0.307,1.678,0.918,2.242s1.425,0.848,2.438,0.848C663.883,326.535,665.495,325.829,667.201,324.417z M694.245,328.973
	c-1.741,0.305-3.425,0.459-5.049,0.459c-2.836,0-4.767-0.51-5.79-1.527c-1.023-1.019-1.535-2.944-1.535-5.781v-9.25h-4.784v-2.612
	h4.784v-4.131h3.478v4.131h8.51v2.612h-8.51v9.814c0,1.095,0.067,1.849,0.203,2.26c0.137,0.412,0.429,0.771,0.876,1.076
	c0.802,0.529,1.97,0.795,3.502,0.795c1.45,0,2.89-0.164,4.315-0.494V328.973L694.245,328.973z M706.604,328.989v-16.56h-6.974
	v-2.611h10.45v19.171H706.604z M706.162,305.477v-4.36h4.359v4.36H706.162z M729.251,329.432c-2.813,0-5.022-0.893-6.629-2.676
	c-1.605-1.781-2.409-4.232-2.409-7.354c0-3.105,0.806-5.551,2.419-7.334c1.611-1.782,3.818-2.674,6.619-2.674
	c2.813,0,5.022,0.892,6.629,2.674c1.606,1.783,2.409,4.229,2.409,7.334c0,3.119-0.803,5.57-2.409,7.354
	S732.063,329.432,729.251,329.432z M729.251,326.818c1.671,0,2.978-0.653,3.919-1.961c0.941-1.307,1.412-3.123,1.412-5.455
	c0-2.316-0.471-4.129-1.412-5.437c-0.941-1.307-2.248-1.96-3.919-1.96s-2.978,0.653-3.919,1.96
	c-0.941,1.308-1.412,3.119-1.412,5.437c0,2.332,0.471,4.148,1.412,5.455C726.273,326.165,727.58,326.818,729.251,326.818z
	 M743.355,328.989v-19.171h3.478v3.602c1.601-2.684,3.777-4.025,6.531-4.025c3.637,0,5.455,2.16,5.455,6.479v13.116h-3.479v-12.163
	c0-1.494-0.231-2.558-0.697-3.187c-0.465-0.63-1.244-0.944-2.339-0.944c-1.742,0-3.565,1.254-5.473,3.761v12.533L743.355,328.989
	L743.355,328.989z M786.711,328.989v-22.648h3.479v11.104l9.482-11.104h3.509l-9.144,10.681l10.892,11.969h-4.177l-10.563-11.545
	v11.545L786.711,328.989L786.711,328.989z M815.52,328.989v-16.56h-6.973v-2.611h10.45v19.171H815.52z M815.079,305.477v-4.36h4.358
	v4.36H815.079z M846.73,328.973c-1.741,0.305-3.426,0.459-5.05,0.459c-2.836,0-4.766-0.51-5.79-1.527
	c-1.022-1.019-1.535-2.944-1.535-5.781v-9.25h-4.783v-2.612h4.783v-4.131h3.479v4.131h8.509v2.612h-8.509v9.814
	c0,1.095,0.067,1.849,0.203,2.26c0.136,0.412,0.428,0.771,0.876,1.076c0.801,0.529,1.969,0.795,3.502,0.795
	c1.45,0,2.889-0.164,4.315-0.494V328.973z"/>
</svg>
