<?xml version="1.0" encoding="utf-8"?>
<!-- Generator: Adobe Illustrator 16.0.0, SVG Export Plug-In . SVG Version: 6.00 Build 0)  -->
<!DOCTYPE svg PUBLIC "-//W3C//DTD SVG 1.1//EN" "http://www.w3.org/Graphics/SVG/1.1/DTD/svg11.dtd">
<svg version="1.1" id="Layer_1" xmlns="http://www.w3.org/2000/svg" xmlns:xlink="http://www.w3.org/1999/xlink" x="0px" y="0px"
	 width="600px" height="100px" viewBox="0 0 600 100" enable-background="new 0 0 600 100" xml:space="preserve">
<g>
	<path fill="#90A30C" d="M57.414,62.03h-8.19l-2.456-11.172c-0.117-0.468-0.301-1.397-0.552-2.789
		c-0.251-1.391-0.436-2.554-0.553-3.49c-0.094,0.76-0.246,1.704-0.456,2.833c-0.21,1.128-0.418,2.166-0.623,3.113
		c-0.205,0.946-1.055,4.782-2.552,11.505h-8.19l-6.349-25.641h6.683l2.789,12.856c0.631,2.841,1.063,5.104,1.298,6.787
		c0.152-1.192,0.423-2.813,0.815-4.858c0.392-2.046,0.757-3.741,1.096-5.086l2.262-9.699h6.419l2.192,9.699
		c0.374,1.555,0.754,3.35,1.14,5.384c0.386,2.035,0.643,3.555,0.772,4.561c0.151-1.298,0.567-3.549,1.245-6.752l2.841-12.891h6.682
		L57.414,62.03z"/>
	<path fill="#90A30C" d="M76.867,62.03H66.211V44.082h10.656v3.892H71.06v2.824h5.377v3.892H71.06v3.389h5.807V62.03z"/>
	<path fill="#90A30C" d="M80.01,44.082h6.261c2.438,0,4.25,0.362,5.432,1.086c1.183,0.724,1.774,1.852,1.774,3.382
		c0,1.007-0.258,1.866-0.773,2.578c-0.516,0.713-1.195,1.171-2.038,1.375v0.123c1.113,0.295,1.919,0.786,2.418,1.474
		c0.499,0.688,0.749,1.579,0.749,2.676c0,1.629-0.612,2.912-1.835,3.85c-1.224,0.937-2.891,1.405-5.003,1.405H80.01V44.082z
		 M84.859,50.969h1.461c0.696,0,1.234-0.144,1.615-0.43c0.38-0.286,0.571-0.712,0.571-1.276c0-1.007-0.761-1.51-2.284-1.51h-1.363
		V50.969z M84.859,54.517v3.77h1.707c1.514,0,2.271-0.639,2.271-1.915c0-0.598-0.203-1.057-0.608-1.376
		c-0.405-0.318-0.993-0.479-1.762-0.479H84.859z"/>
	<path fill="#90A30C" d="M125.722,44.544c0,2.865-0.845,5.078-2.534,6.638c-1.69,1.562-4.09,2.342-7.2,2.342h-1.947v8.506h-6.928
		V36.389h8.875c3.239,0,5.671,0.708,7.296,2.122C124.909,39.926,125.722,41.937,125.722,44.544z M114.042,47.877h1.263
		c1.041,0,1.868-0.292,2.482-0.877c0.614-0.585,0.92-1.392,0.92-2.42c0-1.73-0.958-2.596-2.876-2.596h-1.789V47.877z"/>
	<path fill="#90A30C" d="M139.634,62.03h-10.656V44.082h10.656v3.892h-5.807v2.824h5.377v3.892h-5.377v3.389h5.807V62.03z"/>
	<path fill="#90A30C" d="M147.626,55.499v6.531h-4.849V44.082h5.88c4.878,0,7.317,1.768,7.317,5.303
		c0,2.079-1.015,3.688-3.045,4.825l5.23,7.82h-5.5l-3.806-6.531H147.626z M147.626,51.853h0.909c1.694,0,2.541-0.749,2.541-2.246
		c0-1.236-0.831-1.854-2.492-1.854h-0.958V51.853z"/>
	<path fill="#90A30C" d="M164.568,62.03h-4.775V44.082H170.4v3.892h-5.832v3.425h5.377v3.892h-5.377V62.03z"/>
	<path fill="#90A30C" d="M190.141,53.031c0,3.021-0.741,5.316-2.222,6.888c-1.482,1.571-3.651,2.356-6.507,2.356
		c-2.816,0-4.975-0.789-6.476-2.369c-1.502-1.579-2.253-3.88-2.253-6.899c0-2.987,0.747-5.269,2.241-6.845
		c1.493-1.575,3.665-2.363,6.513-2.363c2.856,0,5.021,0.782,6.495,2.345S190.141,50.003,190.141,53.031z M177.791,53.031
		c0,3.471,1.208,5.205,3.622,5.205c1.228,0,2.138-0.421,2.731-1.264c0.593-0.844,0.89-2.157,0.89-3.941
		c0-1.792-0.301-3.116-0.902-3.972s-1.5-1.283-2.695-1.283C179.006,47.777,177.791,49.528,177.791,53.031z"/>
	<path fill="#90A30C" d="M198.231,55.499v6.531h-4.849V44.082h5.88c4.878,0,7.317,1.768,7.317,5.303
		c0,2.079-1.015,3.688-3.045,4.825l5.23,7.82h-5.5l-3.806-6.531H198.231z M198.231,51.853h0.909c1.694,0,2.541-0.749,2.541-2.246
		c0-1.236-0.831-1.854-2.492-1.854h-0.958V51.853z"/>
	<path fill="#90A30C" d="M218.218,62.03l-3.671-12.928h-0.11c0.172,2.202,0.258,3.912,0.258,5.132v7.796h-4.297V44.082h6.458
		l3.745,12.744h0.098l3.671-12.744h6.47V62.03h-4.457v-7.869c0-0.409,0.006-0.864,0.019-1.363s0.067-1.723,0.166-3.671h-0.11
		l-3.622,12.903H218.218z"/>
	<path fill="#90A30C" d="M245.719,62.03l-0.884-3.364h-5.832l-0.909,3.364h-5.328l5.856-18.022h6.47l5.93,18.022H245.719z
		 M243.828,54.688l-0.773-2.946c-0.18-0.654-0.399-1.502-0.657-2.541c-0.258-1.04-0.428-1.785-0.51-2.235
		c-0.074,0.417-0.219,1.105-0.436,2.063c-0.217,0.957-0.698,2.844-1.443,5.659H243.828z"/>
	<path fill="#90A30C" d="M270.052,62.03h-6.359l-6.556-12.646h-0.11c0.155,1.989,0.233,3.508,0.233,4.555v8.091h-4.297V44.082h6.334
		l6.532,12.473h0.073c-0.114-1.809-0.172-3.262-0.172-4.358v-8.115h4.322V62.03z"/>
	<path fill="#90A30C" d="M281.923,47.801c-1.154,0-2.055,0.473-2.701,1.418s-0.97,2.248-0.97,3.91c0,3.454,1.313,5.181,3.941,5.181
		c0.794,0,1.563-0.11,2.308-0.332c0.745-0.221,1.494-0.486,2.247-0.798v4.101c-1.498,0.663-3.192,0.994-5.083,0.994
		c-2.709,0-4.786-0.785-6.23-2.356c-1.445-1.571-2.167-3.843-2.167-6.814c0-1.857,0.35-3.49,1.05-4.898
		c0.7-1.407,1.707-2.49,3.02-3.247c1.313-0.757,2.858-1.135,4.634-1.135c1.94,0,3.794,0.421,5.562,1.264l-1.485,3.818
		c-0.663-0.311-1.326-0.573-1.989-0.786C283.396,47.908,282.685,47.801,281.923,47.801z"/>
	<path fill="#90A30C" d="M300.903,62.03h-10.656V44.082h10.656v3.892h-5.807v2.824h5.377v3.892h-5.377v3.389h5.807V62.03z"/>
	<path fill="#90A30C" d="M338.201,49.175c0,4.314-1.059,7.594-3.175,9.839s-5.215,3.367-9.295,3.367
		c-4.022,0-7.106-1.128-9.252-3.385s-3.218-5.542-3.218-9.856c0-4.268,1.066-7.527,3.2-9.778c2.134-2.25,5.235-3.376,9.305-3.376
		c4.08,0,7.173,1.117,9.277,3.35C337.148,41.569,338.201,44.849,338.201,49.175z M320.558,49.175c0,4.957,1.725,7.437,5.174,7.437
		c1.754,0,3.055-0.603,3.902-1.807s1.271-3.081,1.271-5.63c0-2.561-0.43-4.452-1.289-5.674s-2.143-1.833-3.85-1.833
		C322.294,41.668,320.558,44.17,320.558,49.175z"/>
	<path fill="#90A30C" d="M355.025,49.79c0,2.006-0.592,3.555-1.774,4.646c-1.183,1.093-2.862,1.64-5.039,1.64h-1.363v5.954h-4.85
		V44.082h6.213c2.267,0,3.969,0.495,5.106,1.485S355.025,47.965,355.025,49.79z M346.849,52.123h0.884
		c0.729,0,1.308-0.205,1.737-0.614s0.645-0.974,0.645-1.694c0-1.211-0.671-1.817-2.014-1.817h-1.252V52.123z"/>
	<path fill="#90A30C" d="M365.805,62.03h-4.85V48.047h-4.383v-3.965h13.603v3.965h-4.37V62.03z"/>
	<path fill="#90A30C" d="M372.741,62.03V44.082h4.874V62.03H372.741z"/>
	<path fill="#90A30C" d="M389.314,62.03l-3.67-12.928h-0.111c0.172,2.202,0.258,3.912,0.258,5.132v7.796h-4.297V44.082h6.458
		l3.744,12.744h0.099l3.671-12.744h6.47V62.03h-4.457v-7.869c0-0.409,0.007-0.864,0.019-1.363c0.013-0.499,0.067-1.723,0.166-3.671
		h-0.11l-3.622,12.903H389.314z"/>
	<path fill="#90A30C" d="M405.803,62.03V44.082h4.874V62.03H405.803z"/>
	<path fill="#90A30C" d="M427.349,62.03h-13.983v-2.995l7.771-11.038h-7.588v-3.916h13.604v2.983l-7.771,11.049h7.968V62.03z"/>
	<path fill="#90A30C" d="M440.927,62.03l-0.884-3.364h-5.832l-0.908,3.364h-5.328l5.856-18.022h6.47l5.93,18.022H440.927z
		 M439.036,54.688l-0.773-2.946c-0.18-0.654-0.399-1.502-0.657-2.541c-0.258-1.04-0.428-1.785-0.509-2.235
		c-0.074,0.417-0.22,1.105-0.437,2.063c-0.217,0.957-0.697,2.844-1.442,5.659H439.036z"/>
	<path fill="#90A30C" d="M456.089,62.03h-4.85V48.047h-4.383v-3.965h13.603v3.965h-4.37V62.03z"/>
	<path fill="#90A30C" d="M463.025,62.03V44.082h4.874V62.03H463.025z"/>
	<path fill="#90A30C" d="M488.573,53.031c0,3.021-0.74,5.316-2.222,6.888s-3.65,2.356-6.507,2.356c-2.815,0-4.975-0.789-6.477-2.369
		c-1.502-1.579-2.253-3.88-2.253-6.899c0-2.987,0.747-5.269,2.241-6.845c1.493-1.575,3.664-2.363,6.513-2.363
		c2.856,0,5.021,0.782,6.494,2.345C487.837,47.708,488.573,50.003,488.573,53.031z M476.223,53.031c0,3.471,1.207,5.205,3.622,5.205
		c1.228,0,2.138-0.421,2.731-1.264c0.594-0.844,0.89-2.157,0.89-3.941c0-1.792-0.301-3.116-0.902-3.972s-1.499-1.283-2.694-1.283
		C477.438,47.777,476.223,49.528,476.223,53.031z"/>
	<path fill="#90A30C" d="M508.904,62.03h-6.359l-6.556-12.646h-0.11c0.155,1.989,0.232,3.508,0.232,4.555v8.091h-4.297V44.082h6.335
		l6.531,12.473h0.074c-0.115-1.809-0.172-3.262-0.172-4.358v-8.115h4.321V62.03z"/>
	<path fill="#90A30C" d="M544.852,62.03h-7.822l-5.068-9.804l-2.053,1.228v8.576h-6.962V36.389h6.962v11.137
		c0.352-0.689,1.059-1.783,2.123-3.28l5.384-7.857h7.577l-8.086,11.488L544.852,62.03z"/>
	<path fill="#90A30C" d="M546.791,62.03V44.082h4.874V62.03H546.791z"/>
	<path fill="#90A30C" d="M563.463,62.03h-4.85V48.047h-4.383v-3.965h13.603v3.965h-4.37V62.03z"/>
</g>
</svg>
